<svg xmlns="http://www.w3.org/2000/svg" xmlns:xlink="http://www.w3.org/1999/xlink" width="500" zoomAndPan="magnify" viewBox="0 0 375 374.999991" height="500" preserveAspectRatio="xMidYMid meet" version="1.0"><defs><clipPath id="e76ddc924c"><path d="M 75 0 L 300 0 C 341.421875 0 375 33.578125 375 75 L 375 300 C 375 341.421875 341.421875 375 300 375 L 75 375 C 33.578125 375 0 341.421875 0 300 L 0 75 C 0 33.578125 33.578125 0 75 0 Z M 75 0 " clip-rule="nonzero"/></clipPath><clipPath id="2ea5090917"><path d="M 0 0 L 375 0 L 375 375 L 0 375 Z M 0 0 " clip-rule="nonzero"/></clipPath><clipPath id="ebc7077100"><path d="M 75 0 L 300 0 C 341.421875 0 375 33.578125 375 75 L 375 300 C 375 341.421875 341.421875 375 300 375 L 75 375 C 33.578125 375 0 341.421875 0 300 L 0 75 C 0 33.578125 33.578125 0 75 0 Z M 75 0 " clip-rule="nonzero"/></clipPath><clipPath id="f0bbc56173"><rect x="0" width="375" y="0" height="375"/></clipPath><clipPath id="f746ab6819"><path d="M 229 252 L 361.0625 252 L 361.0625 302 L 229 302 Z M 229 252 " clip-rule="nonzero"/></clipPath><clipPath id="11efb4499b"><path d="M 45.117188 315 L 71.675781 315 L 71.675781 353.128906 L 45.117188 353.128906 Z M 45.117188 315 " clip-rule="nonzero"/></clipPath></defs><g clip-path="url(#e76ddc924c)"><g transform="matrix(1, 0, 0, 1, 0, 0)"><g clip-path="url(#f0bbc56173)"><g clip-path="url(#2ea5090917)"><g clip-path="url(#ebc7077100)"><rect x="-82.5" width="540" fill="#445a45" height="539.999987" y="-82.499998" fill-opacity="1"/></g></g></g></g></g><g clip-path="url(#f746ab6819)"><path fill="#ffffff" d="M 229.199219 274.175781 C 229.199219 274.175781 257.972656 281.847656 270.34375 287.375 C 282.71875 292.90625 312.6875 304.464844 339.820312 283.113281 C 366.949219 261.757812 334.644531 252.257812 334.644531 252.257812 C 334.644531 252.257812 370.257812 257.726562 358.972656 276.605469 C 347.6875 295.480469 316.359375 310.804688 281.941406 295.824219 C 247.523438 280.84375 229.199219 274.175781 229.199219 274.175781 " fill-opacity="1" fill-rule="nonzero"/></g><path fill="#ffffff" d="M 44.023438 273.507812 C 44.023438 273.507812 72.988281 255.324219 118.941406 255.511719 C 118.941406 255.511719 90.222656 250.980469 51.722656 263.054688 C 51.722656 263.054688 52.054688 261.804688 51.75 254.574219 C 51.75 254.574219 48.109375 266.558594 44.023438 273.507812 " fill-opacity="1" fill-rule="nonzero"/><path fill="#ffffff" d="M 36.179688 272.757812 C 36.179688 272.757812 43.6875 261.359375 47.351562 247.597656 C 47.351562 247.597656 13.828125 256.082031 21.308594 273.261719 C 21.308594 273.261719 21.167969 262.058594 38.070312 258.96875 C 38.070312 258.96875 38.042969 267.449219 36.179688 272.757812 " fill-opacity="1" fill-rule="nonzero"/><g clip-path="url(#11efb4499b)"><path fill="#ffffff" d="M 71.5 344.699219 C 71.5 344.699219 70.246094 330.964844 57.398438 315.484375 C 57.398438 315.484375 31.273438 339.785156 55.347656 353.347656 C 55.347656 353.347656 45.558594 343.144531 58.984375 327.964844 C 58.984375 327.964844 63.351562 330.023438 71.5 344.699219 " fill-opacity="1" fill-rule="nonzero"/></g><path fill="#ffffff" d="M 277.601562 265.191406 C 283.90625 249.898438 316.574219 249.671875 316.574219 249.671875 C 316.574219 249.671875 289.4375 244.226562 272.148438 258.824219 C 254.859375 273.421875 237.261719 267.394531 220.164062 262.835938 C 210.648438 260.300781 194.554688 255.460938 175.359375 251.164062 C 191.089844 239.5625 208.511719 231.144531 208.511719 231.144531 C 188.332031 237.386719 167.988281 249.777344 161.082031 254.199219 C 163.914062 254.699219 166.714844 255.210938 169.476562 255.730469 C 211.105469 263.601562 243.855469 273.453125 249.714844 274.285156 C 260.476562 275.8125 269.257812 269.664062 269.257812 269.664062 C 269.542969 285.375 284.914062 286.347656 284.914062 286.347656 C 284.914062 286.347656 271.292969 280.480469 277.601562 265.191406 " fill-opacity="1" fill-rule="nonzero"/><path fill="#ffffff" d="M 298.292969 152.347656 C 298.292969 152.347656 271.683594 180.683594 227.425781 194.796875 C 227.425781 194.796875 234.34375 201.910156 240.636719 211.730469 C 205.65625 220.246094 175.300781 232.890625 150.0625 246.296875 C 150.066406 246.292969 150.070312 246.289062 150.074219 246.289062 C 141.992188 245.011719 133.675781 243.980469 125.304688 243.359375 C 85.882812 240.445312 57 246.59375 57 246.59375 C 84.203125 244.648438 113.765625 246.996094 141.417969 251.019531 C 141.425781 251.019531 141.4375 251.011719 141.445312 251.007812 C 90.644531 279.601562 62.929688 309.8125 62.929688 309.8125 C 73.304688 322.847656 76.726562 338.5 76.726562 338.5 C 88.257812 317.007812 123.667969 281.335938 123.667969 281.335938 C 106.214844 293.210938 79.113281 326.183594 79.113281 326.183594 C 78.363281 320.625 75.023438 313.035156 75.023438 313.035156 C 131.109375 244.410156 231.136719 218.300781 242.886719 215.429688 C 246.164062 221.082031 248.980469 227.371094 250.136719 233.605469 C 250.136719 233.605469 249.894531 217.753906 238.921875 196.371094 C 238.921875 196.371094 267.902344 181.464844 277.519531 173.308594 C 277.519531 173.308594 276.132812 177.40625 268.960938 185.320312 C 268.960938 185.320312 286.789062 174.289062 298.292969 152.347656 " fill-opacity="1" fill-rule="nonzero"/><path fill="#ffffff" d="M 257.898438 196.664062 C 257.898438 196.664062 299.945312 176.308594 318.960938 156.363281 C 318.960938 156.363281 306.621094 178.085938 278.695312 201.3125 C 278.695312 201.3125 306.230469 189.597656 319.871094 178.640625 C 319.871094 178.640625 316.890625 190.949219 287.3125 212.542969 C 287.3125 212.542969 299.433594 200.589844 303.234375 194.15625 C 303.234375 194.15625 289.144531 202.3125 261.03125 210.601562 C 261.03125 210.601562 285.253906 192.339844 293.925781 182.148438 C 293.925781 182.148438 277.320312 190.824219 257.898438 196.664062 " fill-opacity="1" fill-rule="nonzero"/><path fill="#ffffff" d="M 51.183594 89.476562 C 51.183594 89.476562 21.902344 103.617188 26.902344 139.675781 C 31.898438 175.734375 75.097656 184.972656 98.234375 184.414062 L 104.960938 174.699219 C 104.960938 174.699219 69.519531 178.550781 47.414062 161.277344 C 25.308594 144.003906 29.445312 110.804688 44.527344 98.785156 C 44.527344 98.785156 50.261719 111.511719 61.058594 109.636719 C 71.859375 107.757812 84.519531 85.679688 98.59375 65.105469 C 112.667969 44.535156 130.839844 36.40625 150.277344 40.226562 C 169.714844 44.046875 183.804688 54.472656 192.804688 82.015625 C 192.804688 82.015625 194.9375 53.070312 165.019531 37.363281 C 135.101562 21.652344 109.414062 43.960938 100.515625 54.132812 C 91.613281 64.304688 73.058594 93.722656 67.402344 97.34375 C 61.742188 100.957031 53.117188 102.378906 51.183594 89.476562 " fill-opacity="1" fill-rule="nonzero"/><path fill="#ffffff" d="M 184.054688 182.265625 C 184.054688 182.265625 172.15625 185.625 157.710938 193.988281 C 143.261719 202.347656 131.925781 212.089844 116.582031 213.59375 C 101.238281 215.097656 92.5 205.191406 92.992188 195.226562 C 93.480469 185.257812 100.652344 170.597656 125.371094 158.585938 C 150.09375 146.582031 193.402344 150.390625 204.566406 153.605469 C 215.734375 156.8125 226.898438 160.027344 229.085938 166.691406 C 231.269531 173.355469 218.464844 179.492188 196.691406 179.449219 C 196.691406 179.449219 215.164062 176.820312 219.074219 171.222656 C 222.988281 165.621094 201.226562 155.949219 185.5 154.871094 C 169.769531 153.796875 137.695312 152.789062 115.089844 171.867188 C 92.480469 190.945312 103.371094 202.90625 114.417969 204.421875 C 125.460938 205.933594 137.5 201.757812 153.789062 192.464844 C 170.074219 183.167969 184.054688 182.265625 184.054688 182.265625 " fill-opacity="1" fill-rule="nonzero"/><path fill="#ffffff" d="M 263.117188 60.816406 C 246.105469 50.296875 232.949219 58.46875 232.949219 58.46875 C 237.207031 60.46875 237.285156 83.9375 213.738281 60.550781 C 190.1875 37.15625 174.164062 47.335938 174.164062 47.335938 L 180.695312 53.089844 C 193.691406 48.246094 210.585938 64.1875 216.664062 67.761719 C 222.738281 71.339844 231.089844 78.664062 237.347656 76.410156 C 243.605469 74.15625 243.953125 65 243.953125 65 C 261.398438 63.445312 271.882812 75.335938 271.972656 89.171875 C 272.0625 103.007812 261.078125 115.679688 246.589844 124.101562 C 228.871094 134.402344 226.808594 146.1875 226.808594 146.1875 C 219.28125 129.375 233.058594 120.054688 244.640625 113.703125 C 256.222656 107.355469 255.949219 99.351562 255.949219 99.351562 C 252.972656 106.785156 232.621094 115.375 219.914062 118.59375 C 207.199219 121.8125 203.726562 115.34375 203.726562 115.34375 C 221.953125 109.316406 224.445312 95.09375 224.445312 95.09375 C 204.925781 118.0625 176.082031 103.382812 176.082031 103.382812 C 183.691406 93.402344 182.484375 83.5625 182.484375 83.5625 C 176.082031 103.382812 159.226562 99.175781 159.226562 99.175781 C 169.070312 81.210938 156.476562 62.253906 156.476562 62.253906 C 161.398438 98.71875 133.660156 106.425781 133.660156 106.425781 C 119.214844 106.410156 115.546875 102.207031 112.957031 100.289062 C 110.734375 98.644531 107.167969 88.855469 116.117188 87.019531 C 123.289062 85.554688 123.992188 94.679688 123.992188 94.679688 C 129.09375 84.6875 119.652344 78.882812 111.828125 80.40625 C 101.640625 82.394531 99.855469 93.808594 104.070312 100.828125 C 108.28125 107.851562 120.738281 110.867188 120.738281 110.867188 C 102.65625 132.832031 88.339844 116.507812 88.339844 116.507812 C 88.113281 127.355469 107.074219 131.511719 107.074219 131.511719 C 82.953125 161.636719 57.585938 136.671875 57.585938 136.671875 C 68.75 156.636719 89.039062 155.578125 97.1875 154.492188 C 105.335938 153.40625 106.535156 156.128906 106.136719 163.179688 C 105.742188 170.234375 97.21875 175.859375 97.21875 175.859375 L 101.117188 179.894531 L 110.015625 169.722656 L 115.375 131.148438 L 115.375 131.152344 C 117.039062 120.832031 124.039062 116.75 124.039062 116.75 L 124.035156 116.734375 C 142.804688 104.113281 174.535156 105.839844 195.578125 116.429688 C 218.324219 127.871094 226.097656 153.277344 226.976562 156.390625 L 226.984375 156.402344 C 225.367188 132.027344 261.039062 126.910156 272.765625 108.578125 C 282.921875 92.695312 280.121094 71.332031 263.117188 60.816406 " fill-opacity="1" fill-rule="nonzero"/></svg>