<svg xmlns="http://www.w3.org/2000/svg" xmlns:xlink="http://www.w3.org/1999/xlink" width="500" zoomAndPan="magnify" viewBox="0 0 375 131.999998" height="176" preserveAspectRatio="xMidYMid meet" version="1.0"><defs><g/><clipPath id="77c5577365"><path d="M 85.320312 91.480469 L 138 91.480469 L 138 111.597656 L 85.320312 111.597656 Z M 85.320312 91.480469 " clip-rule="nonzero"/></clipPath><clipPath id="741cbdd3c4"><path d="M 12.4375 116.542969 L 22.992188 116.542969 L 22.992188 131.804688 L 12.4375 131.804688 Z M 12.4375 116.542969 " clip-rule="nonzero"/></clipPath><clipPath id="fe0f77e2f9"><path d="M 0.121094 20 L 135 20 L 135 120 L 0.121094 120 Z M 0.121094 20 " clip-rule="nonzero"/></clipPath><clipPath id="708f094913"><rect x="0" width="222" y="0" height="121"/></clipPath></defs><g clip-path="url(#77c5577365)"><path fill="#445a45" d="M 85.582031 100.347656 C 85.582031 100.347656 97.015625 103.394531 101.929688 105.589844 C 106.847656 107.789062 118.753906 112.382812 129.535156 103.898438 C 140.316406 95.414062 127.480469 91.636719 127.480469 91.636719 C 127.480469 91.636719 141.628906 93.8125 137.144531 101.3125 C 132.660156 108.8125 120.214844 114.902344 106.539062 108.949219 C 92.863281 102.996094 85.582031 100.347656 85.582031 100.347656 " fill-opacity="1" fill-rule="nonzero"/></g><path fill="#445a45" d="M 12.003906 100.082031 C 12.003906 100.082031 23.511719 92.855469 41.769531 92.929688 C 41.769531 92.929688 30.359375 91.132812 15.0625 95.929688 C 15.0625 95.929688 15.195312 95.429688 15.074219 92.558594 C 15.074219 92.558594 13.625 97.320312 12.003906 100.082031 " fill-opacity="1" fill-rule="nonzero"/><path fill="#445a45" d="M 8.886719 99.785156 C 8.886719 99.785156 11.867188 95.253906 13.324219 89.785156 C 13.324219 89.785156 0.00390625 93.15625 2.976562 99.984375 C 2.976562 99.984375 2.921875 95.53125 9.636719 94.304688 C 9.636719 94.304688 9.628906 97.675781 8.886719 99.785156 " fill-opacity="1" fill-rule="nonzero"/><g clip-path="url(#741cbdd3c4)"><path fill="#445a45" d="M 22.921875 128.371094 C 22.921875 128.371094 22.421875 122.914062 17.316406 116.761719 C 17.316406 116.761719 6.9375 126.417969 16.503906 131.804688 C 16.503906 131.804688 12.613281 127.753906 17.949219 121.71875 C 17.949219 121.71875 19.683594 122.539062 22.921875 128.371094 " fill-opacity="1" fill-rule="nonzero"/></g><path fill="#445a45" d="M 104.8125 96.777344 C 107.320312 90.703125 120.300781 90.609375 120.300781 90.609375 C 120.300781 90.609375 109.515625 88.445312 102.648438 94.246094 C 95.777344 100.046875 88.785156 97.652344 81.992188 95.839844 C 78.210938 94.832031 71.816406 92.910156 64.1875 91.203125 C 70.4375 86.59375 77.359375 83.25 77.359375 83.25 C 69.34375 85.730469 61.257812 90.652344 58.515625 92.410156 C 59.640625 92.609375 60.753906 92.8125 61.851562 93.019531 C 78.390625 96.144531 91.40625 100.058594 93.734375 100.390625 C 98.007812 100.996094 101.5 98.554688 101.5 98.554688 C 101.609375 104.796875 107.71875 105.183594 107.71875 105.183594 C 107.71875 105.183594 102.308594 102.851562 104.8125 96.777344 " fill-opacity="1" fill-rule="nonzero"/><path fill="#445a45" d="M 113.035156 51.9375 C 113.035156 51.9375 102.460938 63.199219 84.878906 68.808594 C 84.878906 68.808594 87.625 71.632812 90.125 75.535156 C 76.226562 78.917969 64.164062 83.941406 54.136719 89.269531 C 54.136719 89.269531 54.140625 89.265625 54.140625 89.265625 C 50.929688 88.757812 47.625 88.347656 44.300781 88.101562 C 28.636719 86.945312 17.160156 89.386719 17.160156 89.386719 C 27.96875 88.613281 39.714844 89.546875 50.703125 91.148438 C 50.707031 91.144531 50.710938 91.144531 50.714844 91.140625 C 30.527344 102.503906 19.515625 114.507812 19.515625 114.507812 C 23.636719 119.6875 24.996094 125.90625 24.996094 125.90625 C 29.578125 117.367188 43.648438 103.191406 43.648438 103.191406 C 36.714844 107.910156 25.945312 121.011719 25.945312 121.011719 C 25.648438 118.804688 24.320312 115.789062 24.320312 115.789062 C 46.605469 88.519531 86.351562 78.144531 91.019531 77.003906 C 92.320312 79.25 93.441406 81.75 93.902344 84.226562 C 93.902344 84.226562 93.804688 77.929688 89.445312 69.433594 C 89.445312 69.433594 100.960938 63.511719 104.78125 60.269531 C 104.78125 60.269531 104.230469 61.894531 101.378906 65.042969 C 101.378906 65.042969 108.464844 60.65625 113.035156 51.9375 " fill-opacity="1" fill-rule="nonzero"/><path fill="#445a45" d="M 96.984375 69.550781 C 96.984375 69.550781 113.691406 61.460938 121.246094 53.535156 C 121.246094 53.535156 116.34375 62.167969 105.246094 71.394531 C 105.246094 71.394531 116.191406 66.742188 121.609375 62.386719 C 121.609375 62.386719 120.425781 67.277344 108.671875 75.859375 C 108.671875 75.859375 113.488281 71.109375 115 68.550781 C 115 68.550781 109.402344 71.792969 98.230469 75.085938 C 98.230469 75.085938 107.855469 67.832031 111.300781 63.78125 C 111.300781 63.78125 104.703125 67.226562 96.984375 69.550781 " fill-opacity="1" fill-rule="nonzero"/><path fill="#445a45" d="M 14.847656 26.957031 C 14.847656 26.957031 3.214844 32.578125 5.199219 46.90625 C 7.183594 61.230469 24.351562 64.902344 33.542969 64.679688 L 36.214844 60.820312 C 36.214844 60.820312 22.132812 62.351562 13.351562 55.488281 C 4.566406 48.625 6.210938 35.433594 12.203125 30.65625 C 12.203125 30.65625 14.480469 35.714844 18.773438 34.96875 C 23.0625 34.222656 28.09375 25.449219 33.6875 17.273438 C 39.277344 9.101562 46.5 5.871094 54.222656 7.390625 C 61.945312 8.90625 67.542969 13.050781 71.121094 23.992188 C 71.121094 23.992188 71.96875 12.492188 60.078125 6.25 C 48.191406 0.0078125 37.984375 8.875 34.449219 12.914062 C 30.914062 16.957031 23.539062 28.644531 21.292969 30.082031 C 19.042969 31.519531 15.617188 32.085938 14.847656 26.957031 " fill-opacity="1" fill-rule="nonzero"/><path fill="#445a45" d="M 67.644531 63.828125 C 67.644531 63.828125 62.917969 65.164062 57.175781 68.484375 C 51.433594 71.808594 46.929688 75.679688 40.832031 76.277344 C 34.738281 76.871094 31.265625 72.9375 31.460938 68.976562 C 31.652344 65.015625 34.503906 59.191406 44.328125 54.417969 C 54.148438 49.648438 71.359375 51.164062 75.792969 52.4375 C 80.230469 53.714844 84.667969 54.992188 85.535156 57.636719 C 86.402344 60.285156 81.316406 62.726562 72.664062 62.707031 C 72.664062 62.707031 80.003906 61.664062 81.558594 59.4375 C 83.113281 57.214844 74.464844 53.371094 68.21875 52.941406 C 61.96875 52.515625 49.222656 52.113281 40.238281 59.695312 C 31.257812 67.277344 35.585938 72.027344 39.972656 72.628906 C 44.363281 73.230469 49.144531 71.574219 55.617188 67.878906 C 62.089844 64.1875 67.644531 63.828125 67.644531 63.828125 " fill-opacity="1" fill-rule="nonzero"/><path fill="#445a45" d="M 99.058594 15.570312 C 92.296875 11.390625 87.070312 14.636719 87.070312 14.636719 C 88.761719 15.433594 88.792969 24.757812 79.4375 15.464844 C 70.078125 6.167969 63.714844 10.214844 63.714844 10.214844 L 66.308594 12.5 C 71.472656 10.574219 78.183594 16.910156 80.601562 18.332031 C 83.015625 19.75 86.332031 22.664062 88.820312 21.765625 C 91.304688 20.871094 91.445312 17.234375 91.445312 17.234375 C 98.375 16.613281 102.542969 21.339844 102.578125 26.835938 C 102.613281 32.335938 98.246094 37.371094 92.492188 40.714844 C 85.449219 44.808594 84.632812 49.492188 84.632812 49.492188 C 81.640625 42.8125 87.113281 39.109375 91.71875 36.585938 C 96.320312 34.0625 96.210938 30.882812 96.210938 30.882812 C 95.027344 33.835938 86.941406 37.25 81.890625 38.527344 C 76.839844 39.808594 75.460938 37.234375 75.460938 37.234375 C 82.703125 34.839844 83.691406 29.191406 83.691406 29.191406 C 75.9375 38.316406 64.476562 32.484375 64.476562 32.484375 C 67.5 28.519531 67.019531 24.609375 67.019531 24.609375 C 64.476562 32.484375 57.777344 30.8125 57.777344 30.8125 C 61.691406 23.671875 56.683594 16.140625 56.683594 16.140625 C 58.640625 30.628906 47.621094 33.691406 47.621094 33.691406 C 41.878906 33.6875 40.421875 32.015625 39.394531 31.253906 C 38.511719 30.601562 37.09375 26.710938 40.648438 25.980469 C 43.496094 25.398438 43.777344 29.027344 43.777344 29.027344 C 45.804688 25.054688 42.054688 22.75 38.945312 23.355469 C 34.898438 24.144531 34.1875 28.679688 35.863281 31.46875 C 37.535156 34.257812 42.484375 35.457031 42.484375 35.457031 C 35.300781 44.1875 29.613281 37.699219 29.613281 37.699219 C 29.523438 42.007812 37.054688 43.660156 37.054688 43.660156 C 27.472656 55.628906 17.390625 45.710938 17.390625 45.710938 C 21.828125 53.644531 29.890625 53.222656 33.128906 52.792969 C 36.363281 52.359375 36.84375 53.441406 36.683594 56.246094 C 36.527344 59.046875 33.140625 61.28125 33.140625 61.28125 L 34.6875 62.886719 L 38.226562 58.84375 L 40.351562 43.515625 L 40.355469 43.515625 C 41.015625 39.417969 43.796875 37.796875 43.796875 37.796875 L 43.796875 37.789062 C 51.253906 32.773438 63.859375 33.460938 72.222656 37.667969 C 81.261719 42.214844 84.347656 52.308594 84.699219 53.546875 L 84.699219 53.550781 C 84.058594 43.863281 98.230469 41.832031 102.890625 34.546875 C 106.925781 28.238281 105.816406 19.75 99.058594 15.570312 " fill-opacity="1" fill-rule="nonzero"/><g transform="matrix(1, 0, 0, 1, 153, 5)"><g clip-path="url(#708f094913)"><g clip-path="url(#fe0f77e2f9)"><g fill="#ffffff" fill-opacity="1"><g transform="translate(0.31495, 80.929248)"><g><path d="M 40.5 -21.234375 C 41 -21.421875 41.410156 -21.421875 41.734375 -21.234375 C 42.054688 -21.054688 42.238281 -20.707031 42.28125 -20.1875 C 42.238281 -18.613281 42.144531 -17.039062 42 -15.46875 C 41.613281 -9.96875 41.085938 -4.476562 40.421875 1 C 40.046875 4.269531 39.597656 7.523438 39.078125 10.765625 C 38.566406 14.003906 37.925781 17.21875 37.15625 20.40625 C 36.351562 23.757812 35.234375 26.96875 33.796875 30.03125 C 32.859375 32.03125 31.65625 33.835938 30.1875 35.453125 C 29.175781 36.515625 27.972656 37.304688 26.578125 37.828125 C 25.578125 38.160156 24.644531 38.101562 23.78125 37.65625 C 22.925781 37.21875 22.296875 36.597656 21.890625 35.796875 C 21.398438 34.785156 21.066406 33.738281 20.890625 32.65625 C 20.628906 30.46875 20.757812 28.332031 21.28125 26.25 C 21.90625 23.601562 22.882812 21.117188 24.21875 18.796875 C 27.113281 13.378906 30.960938 8.796875 35.765625 5.046875 C 36.953125 4.179688 37.597656 3.035156 37.703125 1.609375 C 37.890625 -0.285156 38.09375 -2.175781 38.3125 -4.0625 C 38.40625 -4.875 38.488281 -5.675781 38.5625 -6.46875 C 38.488281 -6.507812 38.40625 -6.554688 38.3125 -6.609375 C 38.257812 -6.628906 38.21875 -6.640625 38.1875 -6.640625 C 38.070312 -6.453125 37.941406 -6.238281 37.796875 -6 C 37.535156 -5.539062 37.273438 -5.070312 37.015625 -4.59375 C 35.441406 -1.582031 33.539062 1.195312 31.3125 3.75 C 28.832031 6.59375 25.894531 8.816406 22.5 10.421875 C 21.164062 11.085938 19.769531 11.53125 18.3125 11.75 C 13.46875 12.320312 9.414062 10.671875 6.15625 6.796875 C 4.4375 4.742188 3.144531 2.453125 2.28125 -0.078125 C 0.8125 -4.285156 0.0976562 -8.566406 0.140625 -12.921875 C 0.046875 -19.609375 0.914062 -26.101562 2.75 -32.40625 C 4.476562 -38.425781 7.117188 -43.957031 10.671875 -49 C 11.867188 -50.664062 13.210938 -52.195312 14.703125 -53.59375 C 16.203125 -55 17.847656 -56.222656 19.640625 -57.265625 C 21.617188 -58.410156 23.769531 -59.15625 26.09375 -59.5 C 29.476562 -59.925781 32.546875 -58.992188 35.296875 -56.703125 C 36.253906 -55.929688 36.945312 -54.972656 37.375 -53.828125 C 37.65625 -53.160156 37.679688 -52.515625 37.453125 -51.890625 C 37.253906 -51.398438 36.882812 -51.140625 36.34375 -51.109375 C 36.082031 -51.109375 35.882812 -51.1875 35.75 -51.34375 C 35.625 -51.5 35.519531 -51.679688 35.4375 -51.890625 C 34.695312 -53.753906 33.609375 -55.109375 32.171875 -55.953125 C 30.742188 -56.796875 29.109375 -57.304688 27.265625 -57.484375 C 26.148438 -57.585938 25.050781 -57.492188 23.96875 -57.203125 C 22.894531 -56.921875 21.867188 -56.515625 20.890625 -55.984375 C 19.203125 -55.023438 17.671875 -53.859375 16.296875 -52.484375 C 14.984375 -51.171875 13.789062 -49.757812 12.71875 -48.25 C 11.644531 -46.75 10.675781 -45.179688 9.8125 -43.546875 C 7.800781 -39.816406 6.242188 -35.9375 5.140625 -31.90625 C 4.035156 -27.882812 3.3125 -23.738281 2.96875 -19.46875 C 2.65625 -15.570312 2.753906 -11.671875 3.265625 -7.765625 C 3.671875 -4.554688 4.578125 -1.472656 5.984375 1.484375 C 6.890625 3.421875 8.132812 5.140625 9.71875 6.640625 C 13.269531 9.828125 17.148438 10.617188 21.359375 9.015625 C 23.117188 8.296875 24.695312 7.316406 26.09375 6.078125 C 27.851562 4.617188 29.410156 3 30.765625 1.21875 C 32.128906 -0.5625 33.351562 -2.46875 34.4375 -4.5 C 36.613281 -8.65625 38.148438 -13.082031 39.046875 -17.78125 C 39.097656 -18.070312 39.148438 -18.359375 39.203125 -18.640625 C 39.273438 -19.097656 39.367188 -19.539062 39.484375 -19.96875 C 39.628906 -20.550781 39.96875 -20.972656 40.5 -21.234375 Z M 35.875 14.03125 C 35.894531 13.914062 35.921875 13.800781 35.953125 13.6875 C 36.378906 11.363281 36.734375 8.816406 37.015625 6.046875 C 36.796875 6.210938 36.597656 6.351562 36.421875 6.46875 C 36.191406 6.613281 36.019531 6.742188 35.90625 6.859375 C 31.488281 10.898438 28.09375 15.679688 25.71875 21.203125 C 24.882812 23.046875 24.351562 24.96875 24.125 26.96875 C 24 27.894531 23.96875 28.800781 24.03125 29.6875 C 24.09375 30.570312 24.296875 31.457031 24.640625 32.34375 C 24.816406 32.800781 25.046875 33.21875 25.328125 33.59375 C 26.097656 34.457031 26.925781 34.578125 27.8125 33.953125 C 28.738281 33.265625 29.488281 32.414062 30.0625 31.40625 C 31.207031 29.59375 32.140625 27.671875 32.859375 25.640625 C 34.203125 21.890625 35.207031 18.019531 35.875 14.03125 Z M 35.875 14.03125 "/></g></g><g transform="translate(45.434501, 80.929248)"><g><path d="M 5.03125 -14.3125 C 6.71875 -14.382812 7.878906 -13.59375 8.515625 -11.9375 C 8.972656 -10.726562 9.097656 -9.4375 8.890625 -8.0625 C 8.691406 -6.6875 8.238281 -5.539062 7.53125 -4.625 C 6.832031 -3.789062 5.988281 -3.253906 5 -3.015625 C 4.007812 -2.773438 3.039062 -2.851562 2.09375 -3.25 C 1.15625 -3.644531 0.410156 -4.429688 -0.140625 -5.609375 C -0.566406 -6.648438 -0.707031 -7.695312 -0.5625 -8.75 C -0.445312 -9.644531 -0.203125 -10.507812 0.171875 -11.34375 C 0.609375 -12.363281 1.25 -13.101562 2.09375 -13.5625 C 2.9375 -14.03125 3.914062 -14.28125 5.03125 -14.3125 Z M 4.265625 -4.421875 C 4.984375 -4.847656 5.5 -5.46875 5.8125 -6.28125 C 6.125 -7.09375 6.296875 -7.960938 6.328125 -8.890625 C 6.359375 -9.828125 6.28125 -10.703125 6.09375 -11.515625 C 5.851562 -12.628906 5.519531 -13.175781 5.09375 -13.15625 C 4.675781 -13.144531 4.242188 -12.773438 3.796875 -12.046875 C 3.359375 -11.316406 2.972656 -10.4375 2.640625 -9.40625 C 2.316406 -8.375 2.117188 -7.382812 2.046875 -6.4375 C 1.972656 -5.5 2.101562 -4.8125 2.4375 -4.375 C 2.769531 -3.945312 3.378906 -3.960938 4.265625 -4.421875 Z M 4.265625 -4.421875 "/></g></g><g transform="translate(55.932421, 80.929248)"><g><path d="M 4.375 -3.515625 C 3.226562 -3.546875 2.296875 -4.0625 1.578125 -5.0625 C 0.867188 -6.0625 0.421875 -7.328125 0.234375 -8.859375 C 0.046875 -10.390625 0.195312 -11.957031 0.6875 -13.5625 C 0.800781 -14.0625 1.117188 -14.421875 1.640625 -14.640625 C 2.003906 -14.753906 2.378906 -14.734375 2.765625 -14.578125 C 3.160156 -14.421875 3.375 -14.15625 3.40625 -13.78125 C 3.40625 -13.4375 3.367188 -13.097656 3.296875 -12.765625 C 3.242188 -12.503906 3.207031 -12.253906 3.1875 -12.015625 C 3.125 -11.078125 3.144531 -10.046875 3.25 -8.921875 C 3.351562 -7.804688 3.644531 -6.847656 4.125 -6.046875 C 4.613281 -5.421875 5.160156 -5.34375 5.765625 -5.8125 C 6.367188 -6.289062 6.894531 -7.03125 7.34375 -8.03125 C 7.695312 -8.820312 7.972656 -9.613281 8.171875 -10.40625 C 8.367188 -11.195312 8.5 -11.804688 8.5625 -12.234375 C 8.613281 -12.398438 8.640625 -12.519531 8.640625 -12.59375 C 8.734375 -12.925781 8.816406 -13.269531 8.890625 -13.625 C 9.035156 -14.082031 9.179688 -14.535156 9.328125 -14.984375 C 9.585938 -15.878906 10.21875 -16.253906 11.21875 -16.109375 C 11.820312 -16.054688 12.15625 -15.753906 12.21875 -15.203125 C 12.269531 -14.460938 12.28125 -13.722656 12.25 -12.984375 C 12.226562 -12.648438 12.21875 -12.328125 12.21875 -12.015625 C 12.125 -10.703125 12.09375 -9.304688 12.125 -7.828125 C 12.15625 -6.347656 12.398438 -5.125 12.859375 -4.15625 C 12.910156 -4.039062 12.929688 -3.867188 12.921875 -3.640625 C 12.910156 -3.410156 12.835938 -3.1875 12.703125 -2.96875 C 12.578125 -2.757812 12.367188 -2.628906 12.078125 -2.578125 C 11.796875 -2.535156 11.410156 -2.660156 10.921875 -2.953125 C 10.203125 -3.410156 9.742188 -4.03125 9.546875 -4.8125 C 9.347656 -5.601562 9.25 -6.367188 9.25 -7.109375 C 9.21875 -7.546875 9.191406 -7.925781 9.171875 -8.25 C 8.910156 -6.75 8.316406 -5.59375 7.390625 -4.78125 C 6.472656 -3.96875 5.46875 -3.546875 4.375 -3.515625 Z M 4.375 -3.515625 "/></g></g><g transform="translate(70.59432, 80.929248)"><g><path d="M 12.46875 -9.359375 C 12.71875 -9.867188 12.882812 -10.101562 12.96875 -10.0625 C 13.0625 -10.03125 13.085938 -9.828125 13.046875 -9.453125 C 13.003906 -9.078125 12.921875 -8.65625 12.796875 -8.1875 C 12.628906 -7.46875 12.335938 -6.632812 11.921875 -5.6875 C 11.503906 -4.75 11.039062 -3.894531 10.53125 -3.125 C 9.78125 -2.0625 8.847656 -1.257812 7.734375 -0.71875 C 6.617188 -0.175781 5.609375 -0.0390625 4.703125 -0.3125 C 3.796875 -0.582031 3.269531 -1.4375 3.125 -2.875 C 3.101562 -4.070312 3.207031 -5.390625 3.4375 -6.828125 C 3.519531 -7.421875 3.601562 -8.003906 3.6875 -8.578125 C 3.6875 -8.785156 3.632812 -8.941406 3.53125 -9.046875 C 3.425781 -9.160156 3.289062 -9.207031 3.125 -9.1875 C 3.007812 -9.1875 2.878906 -9.1875 2.734375 -9.1875 C 2.015625 -9.070312 1.285156 -9.082031 0.546875 -9.21875 C -0.335938 -9.476562 -0.851562 -9.914062 -1 -10.53125 C -1.144531 -11.15625 -1.128906 -11.972656 -0.953125 -12.984375 C -0.867188 -13.691406 -0.601562 -14.222656 -0.15625 -14.578125 C 0.289062 -14.941406 0.8125 -15.09375 1.40625 -15.03125 C 2.238281 -14.945312 2.640625 -14.625 2.609375 -14.0625 C 2.585938 -13.507812 2.4375 -12.914062 2.15625 -12.28125 C 1.894531 -11.738281 1.753906 -11.289062 1.734375 -10.9375 C 1.722656 -10.582031 2.03125 -10.457031 2.65625 -10.5625 C 2.800781 -10.59375 2.957031 -10.632812 3.125 -10.6875 C 3.363281 -10.78125 3.628906 -10.863281 3.921875 -10.9375 C 4.222656 -11.007812 4.617188 -11.023438 5.109375 -10.984375 C 5.679688 -10.960938 6.0625 -10.695312 6.25 -10.1875 C 6.4375 -9.6875 6.515625 -9.054688 6.484375 -8.296875 C 6.460938 -7.546875 6.394531 -6.78125 6.28125 -6 C 6.132812 -5.019531 6.0625 -4.179688 6.0625 -3.484375 C 6.0625 -2.785156 6.265625 -2.378906 6.671875 -2.265625 C 7.203125 -2.117188 8 -2.601562 9.0625 -3.71875 C 10.125 -4.832031 11.257812 -6.710938 12.46875 -9.359375 Z M 12.46875 -9.359375 "/></g></g><g transform="translate(82.55843, 80.929248)"><g><path d="M 23.828125 -7.296875 C 23.828125 -7.296875 23.835938 -7.304688 23.859375 -7.328125 C 23.984375 -7.441406 24.265625 -7.703125 24.703125 -8.109375 C 25.148438 -8.515625 25.609375 -8.894531 26.078125 -9.25 C 26.554688 -9.613281 26.910156 -9.800781 27.140625 -9.8125 C 27.367188 -9.820312 27.304688 -9.492188 26.953125 -8.828125 C 26.929688 -8.753906 26.867188 -8.65625 26.765625 -8.53125 C 26.671875 -8.414062 26.578125 -8.289062 26.484375 -8.15625 C 26.460938 -8.125 26.4375 -8.097656 26.40625 -8.078125 C 24.375 -5.953125 22.789062 -4.460938 21.65625 -3.609375 C 20.519531 -2.765625 19.40625 -2.390625 18.3125 -2.484375 C 17.164062 -2.597656 16.394531 -3.128906 16 -4.078125 C 15.601562 -5.023438 15.429688 -6.191406 15.484375 -7.578125 C 15.535156 -8.960938 15.648438 -10.359375 15.828125 -11.765625 C 16.023438 -13.253906 16.125 -14.515625 16.125 -15.546875 C 16.125 -16.585938 15.835938 -17.175781 15.265625 -17.3125 C 14.804688 -17.34375 14.3125 -16.828125 13.78125 -15.765625 C 13.25 -14.703125 12.726562 -13.441406 12.21875 -11.984375 C 11.71875 -10.523438 11.300781 -9.207031 10.96875 -8.03125 C 10.65625 -7.050781 10.441406 -6.40625 10.328125 -6.09375 C 10.128906 -5.625 9.800781 -5.328125 9.34375 -5.203125 C 8.894531 -5.085938 8.445312 -5.125 8 -5.3125 C 7.6875 -5.457031 7.515625 -5.6875 7.484375 -6 C 7.390625 -6.6875 7.359375 -7.40625 7.390625 -8.15625 C 7.390625 -8.644531 7.375 -9.117188 7.34375 -9.578125 C 7.34375 -9.691406 7.34375 -9.835938 7.34375 -10.015625 C 7.375 -10.234375 7.378906 -10.457031 7.359375 -10.6875 C 7.347656 -10.925781 7.320312 -11.128906 7.28125 -11.296875 C 7.25 -11.460938 7.175781 -11.5625 7.0625 -11.59375 C 6.820312 -11.59375 6.539062 -11.320312 6.21875 -10.78125 C 5.894531 -10.238281 5.566406 -9.570312 5.234375 -8.78125 C 4.898438 -8 4.601562 -7.285156 4.34375 -6.640625 C 4.144531 -6.097656 4 -5.726562 3.90625 -5.53125 C 3.851562 -5.4375 3.816406 -5.363281 3.796875 -5.3125 C 3.535156 -4.769531 3.257812 -4.242188 2.96875 -3.734375 C 2.738281 -3.304688 2.378906 -3.046875 1.890625 -2.953125 C 0.796875 -2.804688 0.210938 -3.234375 0.140625 -4.234375 C 0.078125 -6.816406 0.015625 -9.410156 -0.046875 -12.015625 C -0.015625 -12.515625 0.203125 -12.832031 0.609375 -12.96875 C 1.015625 -13.113281 1.429688 -13.113281 1.859375 -12.96875 C 2.285156 -12.832031 2.523438 -12.578125 2.578125 -12.203125 C 2.609375 -12.023438 2.625 -11.832031 2.625 -11.625 C 2.738281 -10.519531 2.875 -9.96875 3.03125 -9.96875 C 3.1875 -9.96875 3.550781 -10.453125 4.125 -11.421875 C 4.40625 -11.910156 4.707031 -12.394531 5.03125 -12.875 C 5.40625 -13.539062 5.890625 -14.113281 6.484375 -14.59375 C 7.148438 -15.03125 7.78125 -15.160156 8.375 -14.984375 C 8.976562 -14.816406 9.457031 -14.375 9.8125 -13.65625 C 10.03125 -13.207031 10.226562 -13.019531 10.40625 -13.09375 C 10.40625 -13.09375 10.421875 -13.109375 10.453125 -13.140625 C 10.503906 -13.316406 10.734375 -13.816406 11.140625 -14.640625 C 11.546875 -15.472656 12.082031 -16.382812 12.75 -17.375 C 13.425781 -18.363281 14.179688 -19.171875 15.015625 -19.796875 C 15.585938 -20.203125 16.203125 -20.425781 16.859375 -20.46875 C 17.515625 -20.519531 18.09375 -20.34375 18.59375 -19.9375 C 19.09375 -19.53125 19.390625 -18.828125 19.484375 -17.828125 C 19.535156 -17.035156 19.484375 -15.90625 19.328125 -14.4375 C 19.171875 -12.96875 18.988281 -11.53125 18.78125 -10.125 C 18.613281 -8.8125 18.503906 -7.796875 18.453125 -7.078125 C 18.390625 -5.585938 18.644531 -4.773438 19.21875 -4.640625 C 19.789062 -4.515625 20.503906 -4.742188 21.359375 -5.328125 C 22.222656 -5.921875 23.046875 -6.578125 23.828125 -7.296875 Z M 23.828125 -7.296875 "/></g></g><g transform="translate(107.894192, 80.929248)"><g><path d="M 17.390625 -9.359375 C 17.648438 -9.503906 17.910156 -9.613281 18.171875 -9.6875 C 18.429688 -9.757812 18.597656 -9.75 18.671875 -9.65625 C 18.742188 -9.570312 18.640625 -9.359375 18.359375 -9.015625 C 17.429688 -7.984375 16.34375 -7.039062 15.09375 -6.1875 C 13.851562 -5.34375 12.585938 -4.625 11.296875 -4.03125 C 10.265625 -3.570312 9.175781 -3.203125 8.03125 -2.921875 C 6.882812 -2.648438 5.75 -2.59375 4.625 -2.75 C 3.507812 -2.90625 2.492188 -3.398438 1.578125 -4.234375 C 0.484375 -5.335938 -0.109375 -6.734375 -0.203125 -8.421875 C -0.304688 -10.109375 0.0859375 -11.523438 0.984375 -12.671875 C 2.148438 -13.984375 3.628906 -14.828125 5.421875 -15.203125 C 7.210938 -15.585938 8.828125 -15.300781 10.265625 -14.34375 C 10.953125 -13.863281 11.226562 -13.300781 11.09375 -12.65625 C 10.96875 -12.007812 10.625 -11.40625 10.0625 -10.84375 C 9.5 -10.289062 8.875 -9.867188 8.1875 -9.578125 C 7.15625 -9.171875 6.234375 -9.085938 5.421875 -9.328125 C 4.609375 -9.566406 3.972656 -9.890625 3.515625 -10.296875 C 3.191406 -10.179688 2.988281 -9.726562 2.90625 -8.9375 C 2.695312 -7.4375 3.164062 -6.21875 4.3125 -5.28125 C 5.269531 -4.5625 6.472656 -4.363281 7.921875 -4.6875 C 9.367188 -5.019531 10.847656 -5.59375 12.359375 -6.40625 C 13.878906 -7.226562 15.234375 -8.007812 16.421875 -8.75 C 16.785156 -8.945312 17.109375 -9.148438 17.390625 -9.359375 Z M 7.890625 -13.140625 C 7.722656 -13.367188 7.441406 -13.457031 7.046875 -13.40625 C 6.660156 -13.363281 6.257812 -13.242188 5.84375 -13.046875 C 5.4375 -12.859375 5.078125 -12.65625 4.765625 -12.4375 C 4.460938 -12.226562 4.332031 -12.078125 4.375 -11.984375 C 4.375 -11.929688 4.410156 -11.835938 4.484375 -11.703125 C 4.554688 -11.578125 4.664062 -11.441406 4.8125 -11.296875 C 4.957031 -11.148438 5.148438 -11.046875 5.390625 -10.984375 C 5.628906 -10.929688 5.9375 -10.953125 6.3125 -11.046875 C 6.914062 -11.210938 7.335938 -11.429688 7.578125 -11.703125 C 7.816406 -11.984375 7.953125 -12.253906 7.984375 -12.515625 C 8.015625 -12.785156 7.984375 -12.992188 7.890625 -13.140625 Z M 7.890625 -13.140625 "/></g></g><g transform="translate(124.452364, 80.929248)"><g><path d="M 9.59375 -22.6875 C 9.757812 -22.664062 9.875 -22.546875 9.9375 -22.328125 C 10 -22.117188 10 -21.894531 9.9375 -21.65625 C 9.875 -21.425781 9.757812 -21.3125 9.59375 -21.3125 L 3.28125 -21.359375 L 3.28125 -21.1875 C 3.257812 -20.257812 3.203125 -19.148438 3.109375 -17.859375 C 2.960938 -15.140625 2.890625 -12.378906 2.890625 -9.578125 C 2.890625 -8.628906 2.953125 -7.316406 3.078125 -5.640625 C 3.210938 -3.960938 3.484375 -2.46875 3.890625 -1.15625 C 3.910156 -1.0625 3.992188 -0.898438 4.140625 -0.671875 C 4.304688 -0.378906 4.46875 -0.0546875 4.625 0.296875 C 4.78125 0.660156 4.851562 0.957031 4.84375 1.1875 C 4.832031 1.414062 4.65625 1.484375 4.3125 1.390625 C 3.195312 1.023438 2.34375 0.132812 1.75 -1.28125 C 1.164062 -2.707031 0.75 -4.367188 0.5 -6.265625 C 0.257812 -8.160156 0.128906 -10.007812 0.109375 -11.8125 C 0.0976562 -13.613281 0.117188 -15.078125 0.171875 -16.203125 C 0.210938 -16.972656 0.25 -17.742188 0.28125 -18.515625 C 0.300781 -19.484375 0.328125 -20.445312 0.359375 -21.40625 L -4.421875 -21.484375 C -4.828125 -21.484375 -5.054688 -21.5625 -5.109375 -21.71875 C -5.171875 -21.875 -5.128906 -22.03125 -4.984375 -22.1875 C -4.835938 -22.351562 -4.648438 -22.453125 -4.421875 -22.484375 L 0.390625 -22.5625 L 0.703125 -27.171875 C 0.753906 -27.910156 0.8125 -28.664062 0.875 -29.4375 C 0.875 -29.84375 0.890625 -30.25 0.921875 -30.65625 C 0.921875 -31.25 1.0625 -31.804688 1.34375 -32.328125 C 1.6875 -32.785156 2.101562 -32.957031 2.59375 -32.84375 C 3.03125 -32.695312 3.273438 -32.394531 3.328125 -31.9375 C 3.378906 -31.195312 3.40625 -30.445312 3.40625 -29.6875 C 3.40625 -29.257812 3.40625 -28.832031 3.40625 -28.40625 C 3.40625 -27.914062 3.40625 -27.429688 3.40625 -26.953125 L 3.28125 -22.59375 Z M 9.59375 -22.6875 "/></g></g></g></g><g fill="#445a45" fill-opacity="1"><g transform="translate(131.560452, 80.929248)"><g><path d="M 43.921875 -30.90625 C 44.179688 -34.082031 44.179688 -37.234375 43.921875 -40.359375 C 43.660156 -43.492188 43.054688 -46.585938 42.109375 -49.640625 C 41.023438 -53.203125 39.320312 -56.414062 37 -59.28125 C 35.5625 -61.03125 33.929688 -62.4375 32.109375 -63.5 C 30.285156 -64.5625 28.242188 -65.222656 25.984375 -65.484375 C 21.710938 -65.941406 17.71875 -65.09375 14 -62.9375 C 11.300781 -61.363281 8.945312 -59.40625 6.9375 -57.0625 C 4.269531 -54.050781 2.304688 -50.785156 1.046875 -47.265625 C -0.210938 -43.753906 -0.671875 -39.992188 -0.328125 -35.984375 C 0.078125 -31.210938 1.953125 -27.140625 5.296875 -23.765625 C 5.648438 -23.359375 6.046875 -22.984375 6.484375 -22.640625 C 6.929688 -22.296875 7.453125 -21.984375 8.046875 -21.703125 C 8.191406 -22.128906 8.320312 -22.53125 8.4375 -22.90625 C 8.664062 -23.644531 8.882812 -24.363281 9.09375 -25.0625 C 10.5 -29.863281 12.53125 -34.390625 15.1875 -38.640625 C 16.132812 -40.128906 17.222656 -41.492188 18.453125 -42.734375 C 18.773438 -43.066406 19.125 -43.363281 19.5 -43.625 C 19.875 -43.882812 20.300781 -44.039062 20.78125 -44.09375 C 20.894531 -44.132812 21.015625 -44.128906 21.140625 -44.078125 C 21.273438 -44.035156 21.367188 -43.96875 21.421875 -43.875 C 21.484375 -43.800781 21.5 -43.691406 21.46875 -43.546875 C 21.4375 -43.398438 21.394531 -43.296875 21.34375 -43.234375 C 20.164062 -42.148438 19.128906 -40.953125 18.234375 -39.640625 C 16.515625 -37.160156 15.082031 -34.535156 13.9375 -31.765625 C 12.445312 -28.410156 11.320312 -24.941406 10.5625 -21.359375 C 10.4375 -20.835938 10.429688 -20.46875 10.546875 -20.25 C 10.660156 -20.039062 10.960938 -19.851562 11.453125 -19.6875 C 14.347656 -18.445312 17.359375 -17.984375 20.484375 -18.296875 C 21.535156 -18.441406 22.578125 -18.628906 23.609375 -18.859375 C 24.035156 -18.953125 24.46875 -19.035156 24.90625 -19.109375 C 24.96875 -19.140625 25.039062 -19.175781 25.125 -19.21875 C 25.300781 -19.238281 25.46875 -19.253906 25.625 -19.265625 C 25.78125 -19.285156 25.941406 -19.25 26.109375 -19.15625 C 26.160156 -19.125 26.21875 -19.070312 26.28125 -19 C 26.34375 -18.9375 26.375 -18.878906 26.375 -18.828125 C 26.394531 -18.734375 26.390625 -18.644531 26.359375 -18.5625 C 26.335938 -18.476562 26.316406 -18.410156 26.296875 -18.359375 C 26.085938 -18.171875 25.867188 -18.050781 25.640625 -18 C 24.378906 -17.59375 23.097656 -17.242188 21.796875 -16.953125 C 20.492188 -16.671875 19.164062 -16.519531 17.8125 -16.5 C 15.457031 -16.46875 13.160156 -16.78125 10.921875 -17.4375 C 10.472656 -17.582031 10.15625 -17.59375 9.96875 -17.46875 C 9.78125 -17.34375 9.65625 -17.03125 9.59375 -16.53125 C 9.226562 -14.351562 8.976562 -12.164062 8.84375 -9.96875 C 8.71875 -7.78125 8.753906 -5.582031 8.953125 -3.375 C 9.179688 -0.707031 9.769531 1.867188 10.71875 4.359375 C 11.351562 6.023438 12.28125 7.503906 13.5 8.796875 C 15.769531 11.085938 18.441406 11.734375 21.515625 10.734375 C 22.859375 10.265625 24.09375 9.585938 25.21875 8.703125 C 26.988281 7.328125 28.59375 5.757812 30.03125 4 C 34.414062 -1.300781 37.78125 -7.1875 40.125 -13.65625 C 42.15625 -19.226562 43.421875 -24.976562 43.921875 -30.90625 Z M 17.15625 13.21875 C 14.90625 13.070312 12.921875 12.097656 11.203125 10.296875 C 9.867188 8.867188 8.878906 7.25 8.234375 5.4375 C 7.628906 3.945312 7.179688 2.425781 6.890625 0.875 C 6.609375 -0.675781 6.410156 -2.238281 6.296875 -3.8125 C 6.148438 -5.726562 6.148438 -7.640625 6.296875 -9.546875 C 6.441406 -11.453125 6.625 -13.351562 6.84375 -15.25 C 6.90625 -15.476562 6.960938 -15.722656 7.015625 -15.984375 C 7.304688 -16.921875 7.347656 -17.753906 7.140625 -18.484375 C 6.941406 -19.210938 6.316406 -19.769531 5.265625 -20.15625 C -0.046875 -23.9375 -2.898438 -29.050781 -3.296875 -35.5 C -3.585938 -39.882812 -2.992188 -43.960938 -1.515625 -47.734375 C -0.0351562 -51.515625 2.175781 -54.992188 5.125 -58.171875 C 8.414062 -61.804688 12.359375 -64.5 16.953125 -66.25 C 20.222656 -67.507812 23.535156 -67.96875 26.890625 -67.625 C 27.972656 -67.539062 29.0625 -67.367188 30.15625 -67.109375 C 32.1875 -66.597656 34.015625 -65.796875 35.640625 -64.703125 C 37.265625 -63.617188 38.722656 -62.269531 40.015625 -60.65625 C 41.523438 -58.738281 42.769531 -56.691406 43.75 -54.515625 C 44.726562 -52.335938 45.503906 -50.054688 46.078125 -47.671875 C 46.503906 -45.753906 46.800781 -43.828125 46.96875 -41.890625 C 47.132812 -39.960938 47.21875 -38.007812 47.21875 -36.03125 C 47.101562 -28.738281 45.9375 -21.804688 43.71875 -15.234375 C 41.5 -8.671875 38.164062 -2.484375 33.71875 3.328125 C 31.800781 5.847656 29.566406 8.054688 27.015625 9.953125 C 24.984375 11.472656 22.734375 12.519531 20.265625 13.09375 C 19.171875 13.289062 18.132812 13.332031 17.15625 13.21875 Z M 17.15625 13.21875 "/></g></g><g transform="translate(179.573284, 80.929248)"><g><path d="M -0.171875 20.5625 L -0.296875 20.703125 C -1.148438 21.273438 -1.46875 20.03125 -1.25 16.96875 C -0.414062 5.957031 -0.015625 -5.023438 -0.046875 -15.984375 L -0.046875 -26.421875 C -0.046875 -31.585938 -0.03125 -36.75 0 -41.90625 C -0.0507812 -44.894531 0.207031 -47.894531 0.78125 -50.90625 C 0.945312 -52 1.332031 -53.015625 1.9375 -53.953125 C 2.289062 -54.472656 2.71875 -54.828125 3.21875 -55.015625 C 3.601562 -55.253906 4.046875 -55.390625 4.546875 -55.421875 C 5.503906 -55.421875 6.382812 -55.203125 7.1875 -54.765625 C 8.675781 -53.910156 10.007812 -52.863281 11.1875 -51.625 C 13.90625 -48.84375 16.300781 -45.789062 18.375 -42.46875 C 22.320312 -36.28125 25.660156 -29.800781 28.390625 -23.03125 C 31.128906 -16.257812 33.304688 -9.234375 34.921875 -1.953125 L 34.921875 -1.921875 C 35.003906 -1.410156 35.164062 -0.921875 35.40625 -0.453125 C 35.425781 -0.921875 35.4375 -1.382812 35.4375 -1.84375 C 35.53125 -4.039062 35.601562 -6.226562 35.65625 -8.40625 C 35.75 -11.21875 35.847656 -14.03125 35.953125 -16.84375 C 36.179688 -24.0625 36.269531 -31.28125 36.21875 -38.5 C 36.15625 -43.238281 36.300781 -47.988281 36.65625 -52.75 C 36.707031 -53.5 36.789062 -54.242188 36.90625 -54.984375 C 36.976562 -55.296875 37.160156 -55.5 37.453125 -55.59375 C 37.492188 -55.613281 37.550781 -55.625 37.625 -55.625 C 37.71875 -55.71875 37.835938 -55.789062 37.984375 -55.84375 C 38.242188 -55.9375 38.515625 -55.890625 38.796875 -55.703125 C 39.222656 -55.421875 39.4375 -55.007812 39.4375 -54.46875 L 39.4375 -53.984375 C 39.4375 -53.335938 39.421875 -52.664062 39.390625 -51.96875 C 39.160156 -47.789062 39.0625 -43.609375 39.09375 -39.421875 L 39.09375 -32.796875 C 39.113281 -27.066406 39.015625 -21.332031 38.796875 -15.59375 C 38.703125 -13.414062 38.613281 -11.253906 38.53125 -9.109375 C 38.5 -7.492188 38.445312 -5.894531 38.375 -4.3125 C 38.164062 0.84375 37.945312 6 37.71875 11.15625 C 37.6875 11.90625 37.617188 12.648438 37.515625 13.390625 C 37.441406 13.703125 37.273438 13.914062 37.015625 14.03125 L 36.765625 14.109375 L 36.515625 14.28125 C 36.222656 14.40625 35.9375 14.40625 35.65625 14.28125 C 35.082031 14.019531 34.734375 13.59375 34.609375 13 C 34.609375 12.851562 34.597656 12.707031 34.578125 12.5625 C 34.460938 11.914062 34.34375 11.25 34.21875 10.5625 C 32.644531 -2.363281 29.238281 -14.707031 24 -26.46875 C 22.425781 -30 20.703125 -33.441406 18.828125 -36.796875 C 16.953125 -40.148438 14.832031 -43.375 12.46875 -46.46875 C 11.101562 -48.363281 9.523438 -50.082031 7.734375 -51.625 C 7.191406 -52.113281 6.59375 -52.53125 5.9375 -52.875 C 5.726562 -52.988281 5.515625 -53.035156 5.296875 -53.015625 C 5.179688 -52.890625 5.078125 -52.757812 4.984375 -52.625 C 4.691406 -52.070312 4.484375 -51.507812 4.359375 -50.9375 C 4.242188 -50.363281 4.148438 -49.789062 4.078125 -49.21875 C 3.859375 -47.09375 3.71875 -44.976562 3.65625 -42.875 C 3.601562 -40.769531 3.585938 -38.65625 3.609375 -36.53125 L 3.609375 -34.484375 C 3.585938 -31.929688 3.585938 -29.375 3.609375 -26.8125 C 3.640625 -22.226562 3.628906 -17.644531 3.578125 -13.0625 C 3.484375 -5.84375 3.125 1.394531 2.5 8.65625 C 1.8125 15.9375 1.050781 19.867188 0.21875 20.453125 C 0.0703125 20.523438 -0.0546875 20.5625 -0.171875 20.5625 Z M -0.171875 20.5625 "/></g></g></g></g></g></svg>